# xmcd
#
# Track frame offsets:
#	150
#	15676
#	29096
#	50755
#	64452
#	88609
#	109101
#	121147
#	145007
#	179898
#	196874
#
# Disc length: 3765 seconds
#
# Revision: 1
# Processed by: cddbd v1.5PL3 Copyright (c) Steve Scherf et al.
# Submitted via: audiograbber 1.83.01
#
DISCID=a20eb30b
DTITLE=Black-Eyed Snakes - It's the Black-Eyed Snakes
DYEAR=1900
DGENRE=
TTITLE0=Chicken-Bone George
TTITLE1=Smokestack Lightnin'
TTITLE2=Big Black Train
TTITLE3=Honey
TTITLE4=8-Inch Knife
TTITLE5=New Orleans
TTITLE6=Lordy
TTITLE7=Mannish Boy
TTITLE8=My New House
TTITLE9=Cheerios On The Floor
TTITLE10=Data Track
EXTD=
EXTT0=
EXTT1=
EXTT2=
EXTT3=
EXTT4=
EXTT5=
EXTT6=
EXTT7=
EXTT8=
EXTT9=
EXTT10=
PLAYORDER=
